<svg width="20" height="18" viewBox="0 0 20 18" fill="none" xmlns="http://www.w3.org/2000/svg">
<path fill-rule="evenodd" clip-rule="evenodd" d="M8.4066 0.40383C8.74306 0.1421 9.15716 0 9.58343 0C10.0097 0 10.4238 0.1421 10.7603 0.40383L18.7949 6.65216C19.5166 7.21471 19.1179 8.3695 18.2056 8.3695H17.2501V16.0362C17.2501 16.5445 17.0482 17.032 16.6887 17.3915C16.3293 17.7509 15.8418 17.9528 15.3334 17.9528H3.83343C3.3251 17.9528 2.83759 17.7509 2.47814 17.3915C2.1187 17.032 1.91677 16.5445 1.91677 16.0362V8.3695H0.961308C0.0480161 8.3695 -0.348734 7.21375 0.371933 6.65312L8.4066 0.40383ZM3.47406 6.66846C3.69352 6.84575 3.83343 7.11696 3.83343 7.42075V16.0362H15.3334V7.42075C15.3334 7.11696 15.4733 6.84575 15.6928 6.66846L9.58343 1.91704L3.47406 6.66846Z" fill="white"/>
</svg>
