<svg width="20" height="20" viewBox="0 0 20 20" fill="none" xmlns="http://www.w3.org/2000/svg">
<path d="M7.54846 3.92021e-08C6.55722 -0.000100984 5.57567 0.195051 4.65985 0.574313C3.74403 0.953575 2.91189 1.50952 2.21094 2.2104C1.50999 2.91127 0.953963 3.74336 0.574607 4.65914C0.195252 5.57492 3.40581e-08 6.55645 3.92061e-08 7.54769C-0.000100996 8.539 0.195077 9.52062 0.574387 10.4365C0.953697 11.3524 1.50971 12.1845 2.21067 12.8855C2.91163 13.5864 3.7438 14.1425 4.65967 14.5218C5.57554 14.9011 6.55715 15.0963 7.54846 15.0962C9.31 15.0962 10.9277 14.4723 12.2123 13.4615L12.8854 14.1346C12.7472 14.4032 12.6982 14.7088 12.7457 15.0071C12.7931 15.3053 12.9345 15.5807 13.1492 15.7931L16.6831 19.3508C17.2315 19.9 18.1292 19.9 18.6785 19.3508L19.3515 18.6777C19.6151 18.4125 19.763 18.0538 19.763 17.68C19.763 17.3062 19.6151 16.9475 19.3515 16.6823L15.7938 13.1485C15.58 12.9352 15.303 12.7966 15.004 12.7534C14.7051 12.7102 14.4002 12.7645 14.1346 12.9085L13.4615 12.2354C14.3426 11.1236 14.8925 9.78601 15.0481 8.37602C15.2038 6.96603 14.959 5.54071 14.3417 4.26348C13.7245 2.98626 12.7598 1.90883 11.5583 1.15475C10.3567 0.40067 8.96702 0.000456338 7.54846 3.92021e-08ZM7.54846 1.39385C9.18056 1.39385 10.7458 2.0422 11.8999 3.19627C13.054 4.35034 13.7023 5.91559 13.7023 7.54769C13.7023 9.17979 13.054 10.745 11.8999 11.8991C10.7458 13.0532 9.18056 13.7015 7.54846 13.7015C5.91636 13.7015 4.35111 13.0532 3.19704 11.8991C2.04297 10.745 1.39462 9.17979 1.39462 7.54769C1.39462 5.91559 2.04297 4.35034 3.19704 3.19627C4.35111 2.0422 5.91636 1.39385 7.54846 1.39385ZM3.65385 5.60077C3.24356 6.26531 3.02722 7.03132 3.02923 7.81231C3.02832 8.36502 3.13651 8.91249 3.34761 9.42331C3.5587 9.93412 3.86855 10.3983 4.25938 10.7891C4.65021 11.1799 5.11434 11.4898 5.62516 11.7009C6.13598 11.9119 6.68344 12.0201 7.23615 12.0192C8.10506 12.0174 8.95247 11.7489 9.66385 11.25C9.47207 11.2678 9.2795 11.2755 9.08692 11.2731C8.37299 11.2749 7.66574 11.1356 7.00579 10.8633C6.34585 10.591 5.74622 10.1909 5.24136 9.68611C4.7365 9.18132 4.33635 8.58175 4.06392 7.92184C3.79148 7.26193 3.65212 6.5547 3.65385 5.84077C3.65385 5.76077 3.65 5.68077 3.65385 5.60077Z" fill="black"/>
</svg>
